<svg width="13" height="99" viewBox="0 0 13 99" version="1.1" xmlns="http://www.w3.org/2000/svg" xmlns:xlink="http://www.w3.org/1999/xlink">
<title>Group 2.1</title>
<desc>Created using Figma</desc>
<g id="Canvas" transform="translate(5196 -456)">
<g id="Group 2.1">
<g id="Group">
<g id="Group">
<g id="Vector">
<use xlink:href="#path0_fill" transform="translate(-5195.54 456.448)" fill="#828282"/>
</g>
<g id="Vector">
<use xlink:href="#path1_stroke" transform="translate(-5193.61 457.074)" fill="#828282"/>
</g>
<g id="Vector">
<use xlink:href="#path2_stroke" transform="translate(-5195.46 508.675)" fill="#828282"/>
</g>
<g id="Vector">
<use xlink:href="#path3_stroke" transform="translate(-5195.46 547.766)" fill="#828282"/>
</g>
<g id="Vector">
<use xlink:href="#path4_stroke" transform="translate(-5192.52 538.428)" fill="#828282"/>
</g>
</g>
</g>
</g>
</g>
<defs>
<path id="path0_fill" d="M 6.04987 0.781832C 10.5873 0.781832 11.2595 2.34549 11.2595 3.83097L 11.2595 95.5398C 11.2595 96.6344 8.7387 96.9471 8.48662 96.9471L 3.61311 96.9471C 3.61311 96.9471 0.924285 96.7907 0.924285 95.5398L 0.924285 3.83097C 0.924285 2.34549 1.51247 0.781832 6.04987 0.781832ZM 6.04987 0C 2.68883 0 0 0.781832 0 3.83097C 0 3.83097 0 93.4289 0 95.5398C 0 97.6508 3.52909 97.729 3.52909 97.729L 8.48662 97.729C 8.48662 97.729 12.0157 97.4944 12.0157 95.5398C 12.0157 93.5852 12.0157 3.83097 12.0157 3.83097C 12.0997 0.781832 9.4109 0 6.04987 0Z"/>
<path id="path1_stroke" d="M 7.47831 35.8079L 7.97788 35.8285L 7.97831 35.8182L 7.97831 35.8079L 7.47831 35.8079ZM 0.924285 35.8079L 0.424285 35.8079L 0.424285 35.8182L 0.424712 35.8285L 0.924285 35.8079ZM 7.84269 0.159301C 7.32929 1.75533 6.98027 3.70854 6.97831 6.0201L 7.97831 6.0201C 7.97634 3.79704 8.29953 1.99747 8.79444 0.466165L 7.84269 0.159301ZM 6.97831 6.0201C 6.97831 8.99106 6.97831 16.438 6.97831 23.1422C 6.97831 26.4943 6.97831 29.6607 6.97831 31.9891C 6.97831 33.1533 6.97831 34.108 6.97831 34.7717C 6.97831 35.1035 6.97831 35.3625 6.97831 35.5386C 6.97831 35.6267 6.97831 35.694 6.97831 35.7393C 6.97831 35.7619 6.97831 35.7791 6.97831 35.7906C 6.97831 35.7963 6.97831 35.8006 6.97831 35.8035C 6.97831 35.805 6.97831 35.8061 6.97831 35.8068C 6.97831 35.8072 6.97831 35.8074 6.97831 35.8076C 6.97831 35.8078 6.97831 35.8079 7.47831 35.8079C 7.97831 35.8079 7.97831 35.8078 7.97831 35.8076C 7.97831 35.8074 7.97831 35.8072 7.97831 35.8068C 7.97831 35.8061 7.97831 35.805 7.97831 35.8035C 7.97831 35.8006 7.97831 35.7963 7.97831 35.7906C 7.97831 35.7791 7.97831 35.7619 7.97831 35.7393C 7.97831 35.694 7.97831 35.6267 7.97831 35.5386C 7.97831 35.3625 7.97831 35.1035 7.97831 34.7717C 7.97831 34.108 7.97831 33.1533 7.97831 31.9891C 7.97831 29.6607 7.97831 26.4943 7.97831 23.1422C 7.97831 16.438 7.97831 8.99106 7.97831 6.0201L 6.97831 6.0201ZM 7.47831 35.8079C 6.97873 35.7872 6.97874 35.787 6.97875 35.7868C 6.97876 35.7867 6.97877 35.7865 6.97877 35.7863C 6.97877 35.7864 6.97881 35.7854 6.9788 35.7856C 6.9788 35.7857 6.97886 35.7844 6.97885 35.7846C 6.97886 35.7843 6.97887 35.7843 6.97884 35.7848C 6.9787 35.7872 6.97863 35.7885 6.97828 35.7929C 6.9774 35.8047 6.97636 35.8168 6.97388 35.838C 6.96836 35.8864 6.96052 35.9422 6.94338 36.0211C 6.9073 36.192 6.85499 36.3754 6.73709 36.5806C 6.53019 36.9514 6.14003 37.3406 5.29363 37.3406L 5.29363 38.3406C 6.54788 38.3406 7.25006 37.7135 7.61033 37.0679C 7.77602 36.7649 7.87601 36.4402 7.92133 36.2299C 7.94489 36.1183 7.96003 36.0152 7.96731 35.9524C 7.97123 35.918 7.97405 35.8865 7.97542 35.8685C 7.9762 35.8581 7.97685 35.848 7.97716 35.8427C 7.97735 35.8393 7.97754 35.8358 7.97762 35.8341C 7.97768 35.8329 7.97775 35.8315 7.97778 35.8309C 7.9778 35.8305 7.97782 35.8299 7.97783 35.8296C 7.97784 35.8294 7.97785 35.8292 7.97786 35.8291C 7.97787 35.8288 7.97788 35.8285 7.47831 35.8079ZM 5.29363 37.3406L 3.10896 37.3406L 3.10896 38.3406L 5.29363 38.3406L 5.29363 37.3406ZM 3.10896 37.3406C 2.26256 37.3406 1.8724 36.9514 1.6655 36.5806C 1.5476 36.3754 1.4953 36.192 1.45921 36.0211C 1.44207 35.9422 1.43423 35.8864 1.42872 35.838C 1.42623 35.8168 1.4252 35.8047 1.42431 35.7929C 1.42396 35.7885 1.42389 35.7872 1.42375 35.7848C 1.42372 35.7843 1.42373 35.7843 1.42374 35.7846C 1.42373 35.7844 1.42379 35.7857 1.42379 35.7856C 1.42378 35.7854 1.42382 35.7864 1.42382 35.7863C 1.42383 35.7865 1.42384 35.7867 1.42384 35.7868C 1.42385 35.787 1.42386 35.7872 0.924285 35.8079C 0.424712 35.8285 0.424723 35.8288 0.424734 35.8291C 0.424738 35.8292 0.42475 35.8294 0.424759 35.8296C 0.424769 35.8299 0.424795 35.8305 0.424816 35.8309C 0.424843 35.8315 0.424909 35.8329 0.424966 35.8341C 0.42505 35.8358 0.425238 35.8393 0.425429 35.8427C 0.425738 35.848 0.426391 35.8581 0.427171 35.8685C 0.428544 35.8865 0.431365 35.918 0.435281 35.9524C 0.442564 36.0152 0.457702 36.1183 0.481264 36.2299C 0.526578 36.4402 0.62657 36.7649 0.792261 37.0679C 1.15253 37.7135 1.85471 38.3406 3.10896 38.3406L 3.10896 37.3406ZM 0.924285 35.8079C 1.42429 35.8079 1.42429 35.8078 1.42429 35.8076C 1.42429 35.8074 1.42429 35.8072 1.42429 35.8068C 1.42429 35.8061 1.42429 35.805 1.42429 35.8035C 1.42429 35.8006 1.42429 35.7963 1.42429 35.7906C 1.42429 35.7791 1.42429 35.7619 1.42429 35.7393C 1.42429 35.694 1.42429 35.6267 1.42429 35.5386C 1.42429 35.3625 1.42429 35.1035 1.42429 34.7717C 1.42429 34.108 1.42429 33.1533 1.42429 31.9891C 1.42429 29.6607 1.42429 26.4943 1.42429 23.1422C 1.42429 16.438 1.42429 8.99106 1.42429 6.0201L 0.424285 6.0201C 0.424285 8.99106 0.424285 16.438 0.424285 23.1422C 0.424285 26.4943 0.424285 29.6607 0.424285 31.9891C 0.424285 33.1533 0.424285 34.108 0.424285 34.7717C 0.424285 35.1035 0.424285 35.3625 0.424285 35.5386C 0.424285 35.6267 0.424285 35.694 0.424285 35.7393C 0.424285 35.7619 0.424285 35.7791 0.424285 35.7906C 0.424285 35.7963 0.424285 35.8006 0.424285 35.8035C 0.424285 35.805 0.424285 35.8061 0.424285 35.8068C 0.424285 35.8072 0.424285 35.8074 0.424285 35.8076C 0.424285 35.8078 0.424285 35.8079 0.924285 35.8079ZM 1.42429 6.0201C 1.42261 3.55551 1.07114 1.43424 0.467986 -0.176036L -0.467987 0.176036C 0.105221 1.69308 0.425962 3.63734 0.424285 6.0201L 1.42429 6.0201Z"/>
<path id="path2_stroke" d="M 2.68883 0.860016L 2.34823 1.22607L 2.34823 1.22607L 2.68883 0.860016ZM 2.85688 1.01638L 3.19748 0.650329L 3.19748 0.650326L 2.85688 1.01638ZM 9.83103 1.01638L 9.49044 0.650326L 9.49043 0.650329L 9.83103 1.01638ZM 10.0831 0.781834L 10.4237 1.14789L 10.4237 1.14788L 10.0831 0.781834ZM 1.25208e-09 0.578184C 0.0840259 0.578184 0.336104 0.578184 0.672207 0.578184L 0.672207 -0.421816C 0.336104 -0.421816 0.0840259 -0.421816 1.25208e-09 -0.421816L 1.25208e-09 0.578184ZM 0.672207 0.578184C 1.30115 0.578184 1.93593 0.842438 2.34823 1.22607L 3.02943 0.493965C 2.43341 -0.0606039 1.55573 -0.421816 0.672207 -0.421816L 0.672207 0.578184ZM 2.34823 1.22607L 2.51629 1.38243L 3.19748 0.650326L 3.02942 0.493962L 2.34823 1.22607ZM 2.51628 1.38243C 3.1123 1.937 3.98998 2.29821 4.8735 2.29821L 4.8735 1.29821C 4.24456 1.29821 3.60978 1.03396 3.19748 0.650329L 2.51628 1.38243ZM 4.8735 2.29821L 7.81441 2.29821L 7.81441 1.29821L 4.8735 1.29821L 4.8735 2.29821ZM 7.81441 2.29821C 8.69793 2.29821 9.57562 1.937 10.1716 1.38243L 9.49043 0.650329C 9.07814 1.03396 8.44335 1.29821 7.81441 1.29821L 7.81441 2.29821ZM 10.1716 1.38243L 10.4237 1.14789L 9.74252 0.41578L 9.49044 0.650326L 10.1716 1.38243ZM 10.4237 1.14788C 10.836 0.764256 11.4708 0.500002 12.0997 0.500002L 12.0997 -0.499998C 11.2162 -0.499998 10.3385 -0.138786 9.74251 0.415783L 10.4237 1.14788Z"/>
<path id="path3_stroke" d="M 12.0157 -0.499997L 1.25208e-09 -0.499997L 1.25208e-09 0.500003L 12.0157 0.500003L 12.0157 -0.499997Z"/>
<path id="path4_stroke" d="M 2.01227 5.50698L 1.87783 5.98858L 1.88131 5.98952L 2.01227 5.50698ZM 4.02889 6.05426L 4.16332 5.57266L 4.15984 5.57171L 4.02889 6.05426ZM 4.02889 0.737806L 3.88077 1.21536L 3.89802 1.22071L 3.91561 1.2248L 4.02889 0.737806ZM 2.01227 0.112339L 2.16038 -0.365219L 2.15357 -0.367333L 2.1467 -0.369251L 2.01227 0.112339ZM 1.88131 5.98952L 3.89793 6.5368L 4.15984 5.57171L 2.14322 5.02443L 1.88131 5.98952ZM 3.89446 6.53585C 4.35749 6.6651 4.77636 6.70567 5.14458 6.62513C 5.53105 6.5406 5.82595 6.33003 6.03059 6.03268C 6.40074 5.49483 6.44814 4.70168 6.44814 3.97824L 5.44814 3.97824C 5.44814 4.74028 5.37617 5.21969 5.20682 5.46575C 5.14172 5.56035 5.06184 5.61958 4.9309 5.64822C 4.78171 5.68086 4.54055 5.67797 4.16332 5.57267L 3.89446 6.53585ZM 6.44814 3.97824C 6.44814 3.22491 6.39099 2.41718 6.07145 1.73537C 5.73418 1.01575 5.12596 0.479653 4.14217 0.250808L 3.91561 1.2248C 4.61234 1.38688 4.96374 1.72826 5.16597 2.15975C 5.38592 2.62907 5.44814 3.24609 5.44814 3.97824L 6.44814 3.97824ZM 4.17701 0.260249L 2.16038 -0.365219L 1.86415 0.589896L 3.88077 1.21536L 4.17701 0.260249ZM 2.1467 -0.369251C 1.68122 -0.499184 1.25883 -0.538278 0.885433 -0.459314C 0.52584 -0.373725 0.177199 -0.140398 -0.0245033 0.117804C -0.42666 0.655666 -0.5 1.44881 -0.5 2.18802L 0.5 2.18802C 0.5 1.44175 0.592535 0.962507 0.776382 0.716622C 0.867682 0.582951 0.917074 0.546566 1.09233 0.519049C 1.25378 0.484907 1.50306 0.489312 1.87784 0.593928L 2.1467 -0.369251ZM -0.5 2.18802C -0.5 2.9562 -0.416544 3.7624 -0.0711846 4.45243C 0.287449 5.16898 0.907015 5.71757 1.87784 5.98857L 2.1467 5.02539C 1.437 4.82728 1.05043 4.45914 0.823063 4.00486C 0.582419 3.52405 0.5 2.90532 0.5 2.18802L -0.5 2.18802Z"/>
</defs>
</svg>

